<svg width="25" height="25" viewBox="0 0 25 25" fill="none" xmlns="http://www.w3.org/2000/svg">
<g clip-path="url(#clip0_2001_2365)">
<path d="M12.5 0.774902C10.114 0.778067 7.82668 1.7273 6.13953 3.41444C4.45239 5.10158 3.50317 7.38893 3.5 9.7749C3.5 16.2362 11.885 24.3287 12.2412 24.6699C12.3105 24.7373 12.4034 24.7749 12.5 24.7749C12.5966 24.7749 12.6895 24.7373 12.7587 24.6699C13.115 24.3287 21.5 16.2362 21.5 9.7749C21.4968 7.38893 20.5476 5.10158 18.8605 3.41444C17.1733 1.7273 14.886 0.778067 12.5 0.774902ZM12.5 13.8999C11.6842 13.8999 10.8866 13.658 10.2083 13.2047C9.52992 12.7515 9.00121 12.1072 8.689 11.3535C8.37679 10.5997 8.2951 9.77033 8.45426 8.97015C8.61343 8.16998 9.00629 7.43498 9.58318 6.85809C10.1601 6.28119 10.8951 5.88833 11.6953 5.72916C12.4954 5.57 13.3248 5.65169 14.0786 5.9639C14.8323 6.27611 15.4766 6.80482 15.9298 7.48318C16.3831 8.16153 16.625 8.95905 16.625 9.7749C16.6243 10.8687 16.1895 11.9175 15.4161 12.691C14.6426 13.4644 13.5938 13.8992 12.5 13.8999Z" fill="#0A0F24"/>
</g>
<defs>
<clipPath id="clip0_2001_2365">
<rect width="24" height="24" fill="white" transform="translate(0.5 0.774902)"/>
</clipPath>
</defs>
</svg>
