<svg width="18" height="20" viewBox="0 0 18 20" fill="none" xmlns="http://www.w3.org/2000/svg">
<path d="M14.0046 4.4585H13.2725V2.87516C13.2725 2.6652 13.1953 2.46384 13.058 2.31537C12.9208 2.1669 12.7345 2.0835 12.5404 2.0835C12.3462 2.0835 12.16 2.1669 12.0227 2.31537C11.8854 2.46384 11.8082 2.6652 11.8082 2.87516V4.4585H5.9513V2.87516C5.9513 2.6652 5.87417 2.46384 5.73687 2.31537C5.59957 2.1669 5.41335 2.0835 5.21918 2.0835C5.02501 2.0835 4.8388 2.1669 4.7015 2.31537C4.5642 2.46384 4.48707 2.6652 4.48707 2.87516V4.4585H3.75495C3.17244 4.4585 2.61379 4.70872 2.20189 5.15412C1.78999 5.59952 1.55859 6.20361 1.55859 6.8335V7.62516H16.201V6.8335C16.201 6.20361 15.9696 5.59952 15.5577 5.15412C15.1458 4.70872 14.5871 4.4585 14.0046 4.4585Z" fill="#ECF100"/>
<path d="M1.55859 15.5418C1.55859 16.1717 1.78999 16.7758 2.20189 17.2212C2.61379 17.6666 3.17244 17.9168 3.75495 17.9168H14.0046C14.5871 17.9168 15.1458 17.6666 15.5577 17.2212C15.9696 16.7758 16.201 16.1717 16.201 15.5418V9.2085H1.55859V15.5418Z" fill="#ECF100"/>
</svg>
