<svg width="25" height="25" viewBox="0 0 25 25" fill="none" xmlns="http://www.w3.org/2000/svg">
<path d="M12.4992 1.7002C10.3632 1.7002 8.27511 2.3336 6.49906 3.52032C4.72301 4.70704 3.33875 6.39377 2.52132 8.36721C1.7039 10.3407 1.49002 12.5122 1.90674 14.6072C2.32346 16.7022 3.35206 18.6265 4.86247 20.1369C6.37288 21.6473 8.29725 22.6759 10.3922 23.0927C12.4872 23.5094 14.6588 23.2955 16.6322 22.4781C18.6056 21.6607 20.2924 20.2764 21.4791 18.5003C22.6658 16.7243 23.2992 14.6362 23.2992 12.5002C23.296 9.63683 22.1572 6.89165 20.1325 4.86695C18.1078 2.84224 15.3626 1.70337 12.4992 1.7002ZM15.7476 15.7486C15.5226 15.9736 15.2174 16.0999 14.8992 16.0999C14.581 16.0999 14.2759 15.9736 14.0508 15.7486L11.6508 13.3486C11.4258 13.1236 11.2993 12.8184 11.2992 12.5002V7.70019C11.2992 7.38193 11.4256 7.07671 11.6507 6.85167C11.8757 6.62662 12.181 6.50019 12.4992 6.50019C12.8175 6.50019 13.1227 6.62662 13.3477 6.85167C13.5728 7.07671 13.6992 7.38193 13.6992 7.70019V12.0034L15.7476 14.0518C15.9726 14.2768 16.099 14.582 16.099 14.9002C16.099 15.2184 15.9726 15.5236 15.7476 15.7486Z" fill="#878787"/>
</svg>
