<svg width="25" height="25" viewBox="0 0 25 25" fill="none" xmlns="http://www.w3.org/2000/svg">
<path d="M19.1708 5.50049H18.1947V3.50049C18.1947 3.23527 18.0918 2.98092 17.9088 2.79338C17.7257 2.60585 17.4774 2.50049 17.2185 2.50049C16.9596 2.50049 16.7113 2.60585 16.5283 2.79338C16.3452 2.98092 16.2424 3.23527 16.2424 3.50049V5.50049H8.43312V3.50049C8.43312 3.23527 8.33027 2.98092 8.14721 2.79338C7.96414 2.60585 7.71585 2.50049 7.45696 2.50049C7.19807 2.50049 6.94978 2.60585 6.76671 2.79338C6.58365 2.98092 6.4808 3.23527 6.4808 3.50049V5.50049H5.50464C4.72796 5.50049 3.9831 5.81656 3.4339 6.37917C2.88471 6.94178 2.57617 7.70484 2.57617 8.50049V9.50049H22.0993V8.50049C22.0993 7.70484 21.7908 6.94178 21.2416 6.37917C20.6924 5.81656 19.9475 5.50049 19.1708 5.50049Z" fill="#878787"/>
<path d="M2.57617 19.5005C2.57617 20.2961 2.88471 21.0592 3.4339 21.6218C3.9831 22.1844 4.72796 22.5005 5.50464 22.5005H19.1708C19.9475 22.5005 20.6924 22.1844 21.2416 21.6218C21.7908 21.0592 22.0993 20.2961 22.0993 19.5005V11.5005H2.57617V19.5005Z" fill="#878787"/>
</svg>
