<svg width="25" height="25" viewBox="0 0 25 25" fill="none" xmlns="http://www.w3.org/2000/svg">
<g clip-path="url(#clip0_2001_2689)">
<path d="M17.2242 6.75312C18.951 6.75312 20.3508 5.35332 20.3508 3.62656C20.3508 1.89981 18.951 0.5 17.2242 0.5C15.4975 0.5 14.0977 1.89981 14.0977 3.62656C14.0977 5.35332 15.4975 6.75312 17.2242 6.75312Z" fill="#878787"/>
<path d="M23.2772 16.5971L21.496 9.60801C21.1772 8.36113 20.0569 7.48926 18.7725 7.48926H15.6788C14.3944 7.48926 13.2694 8.36113 12.9554 9.60801L11.1741 16.5971C10.9116 17.633 11.6944 18.6408 12.7632 18.6408H14.0944V23.0939C14.0944 23.8721 14.7225 24.5002 15.5007 24.5002H18.946C19.7241 24.5002 20.3522 23.8721 20.3522 23.0939V18.6408H21.6882C22.7569 18.6408 23.5397 17.633 23.2772 16.5971Z" fill="#878787"/>
<path d="M7.46094 7.49365H4.48438C2.93281 7.49365 1.67188 8.75459 1.67188 10.3062V15.3593C1.67188 16.0577 2.17813 16.6343 2.84375 16.7468V23.0937C2.84375 23.8718 3.47187 24.4999 4.25 24.4999H7.69531C8.47344 24.4999 9.10156 23.8718 9.10156 23.0937V16.7468C9.76719 16.6343 10.2734 16.0577 10.2734 15.3593V10.3062C10.2734 8.7499 9.01719 7.49365 7.46094 7.49365Z" fill="#878787"/>
<path d="M5.97422 6.75312C7.70097 6.75312 9.10078 5.35332 9.10078 3.62656C9.10078 1.89981 7.70097 0.5 5.97422 0.5C4.24747 0.5 2.84766 1.89981 2.84766 3.62656C2.84766 5.35332 4.24747 6.75312 5.97422 6.75312Z" fill="#878787"/>
</g>
<defs>
<clipPath id="clip0_2001_2689">
<rect width="24" height="24" fill="white" transform="translate(0.5 0.5)"/>
</clipPath>
</defs>
</svg>
