<svg width="25" height="25" viewBox="0 0 25 25" fill="none" xmlns="http://www.w3.org/2000/svg">
<g clip-path="url(#clip0_2001_7191)">
<path d="M12.5 0.5C10.114 0.503165 7.82668 1.45239 6.13953 3.13953C4.45239 4.82668 3.50317 7.11402 3.5 9.5C3.5 15.9612 11.885 24.0538 12.2412 24.395C12.3105 24.4623 12.4034 24.5 12.5 24.5C12.5966 24.5 12.6895 24.4623 12.7587 24.395C13.115 24.0538 21.5 15.9612 21.5 9.5C21.4968 7.11402 20.5476 4.82668 18.8605 3.13953C17.1733 1.45239 14.886 0.503165 12.5 0.5ZM12.5 13.625C11.6842 13.625 10.8866 13.3831 10.2083 12.9298C9.52992 12.4766 9.00121 11.8323 8.689 11.0786C8.37679 10.3248 8.2951 9.49542 8.45426 8.69525C8.61343 7.89508 9.00629 7.16008 9.58318 6.58318C10.1601 6.00629 10.8951 5.61342 11.6953 5.45426C12.4954 5.2951 13.3248 5.37679 14.0786 5.689C14.8323 6.00121 15.4766 6.52992 15.9298 7.20827C16.3831 7.88663 16.625 8.68415 16.625 9.5C16.6243 10.5938 16.1895 11.6426 15.4161 12.4161C14.6426 13.1895 13.5938 13.6243 12.5 13.625Z" fill="#878787"/>
</g>
<defs>
<clipPath id="clip0_2001_7191">
<rect width="24" height="24" fill="white" transform="translate(0.5 0.5)"/>
</clipPath>
</defs>
</svg>
