<svg width="25" height="25" viewBox="0 0 25 25" fill="none" xmlns="http://www.w3.org/2000/svg">
<path d="M12.5002 1.7002C10.3642 1.7002 8.27609 2.3336 6.50004 3.52032C4.72399 4.70704 3.33973 6.39377 2.5223 8.36721C1.70487 10.3407 1.491 12.5122 1.90772 14.6072C2.32444 16.7022 3.35304 18.6265 4.86345 20.1369C6.37385 21.6473 8.29823 22.6759 10.3932 23.0927C12.4882 23.5094 14.6597 23.2955 16.6332 22.4781C18.6066 21.6607 20.2933 20.2764 21.4801 18.5003C22.6668 16.7243 23.3002 14.6362 23.3002 12.5002C23.297 9.63683 22.1581 6.89165 20.1334 4.86695C18.1087 2.84224 15.3636 1.70337 12.5002 1.7002ZM15.7486 15.7486C15.5236 15.9736 15.2184 16.0999 14.9002 16.0999C14.582 16.0999 14.2768 15.9736 14.0518 15.7486L11.6518 13.3486C11.4267 13.1236 11.3003 12.8184 11.3002 12.5002V7.70019C11.3002 7.38193 11.4266 7.07671 11.6517 6.85167C11.8767 6.62662 12.1819 6.50019 12.5002 6.50019C12.8185 6.50019 13.1237 6.62662 13.3487 6.85167C13.5738 7.07671 13.7002 7.38193 13.7002 7.70019V12.0034L15.7486 14.0518C15.9736 14.2768 16.0999 14.582 16.0999 14.9002C16.0999 15.2184 15.9736 15.5236 15.7486 15.7486Z" fill="#0A0F24"/>
</svg>
