<svg width="25" height="25" viewBox="0 0 25 25" fill="none" xmlns="http://www.w3.org/2000/svg">
<g clip-path="url(#clip0_2001_3759)">
<path d="M17.2252 6.75312C18.9519 6.75312 20.3518 5.35332 20.3518 3.62656C20.3518 1.89981 18.9519 0.5 17.2252 0.5C15.4984 0.5 14.0986 1.89981 14.0986 3.62656C14.0986 5.35332 15.4984 6.75312 17.2252 6.75312Z" fill="#0A0F24"/>
<path d="M23.2763 16.5971L21.495 9.60801C21.1763 8.36113 20.0559 7.48926 18.7716 7.48926H15.6778C14.3934 7.48926 13.2684 8.36113 12.9544 9.60801L11.1731 16.5971C10.9106 17.633 11.6934 18.6408 12.7622 18.6408H14.0934V23.0939C14.0934 23.8721 14.7216 24.5002 15.4997 24.5002H18.945C19.7231 24.5002 20.3513 23.8721 20.3513 23.0939V18.6408H21.6872C22.7559 18.6408 23.5388 17.633 23.2763 16.5971Z" fill="#0A0F24"/>
<path d="M7.46094 7.49365H4.48438C2.93281 7.49365 1.67188 8.75459 1.67188 10.3062V15.3593C1.67188 16.0577 2.17813 16.6343 2.84375 16.7468V23.0937C2.84375 23.8718 3.47187 24.4999 4.25 24.4999H7.69531C8.47344 24.4999 9.10156 23.8718 9.10156 23.0937V16.7468C9.76719 16.6343 10.2734 16.0577 10.2734 15.3593V10.3062C10.2734 8.7499 9.01719 7.49365 7.46094 7.49365Z" fill="#0A0F24"/>
<path d="M5.9752 6.75312C7.70195 6.75312 9.10176 5.35332 9.10176 3.62656C9.10176 1.89981 7.70195 0.5 5.9752 0.5C4.24844 0.5 2.84863 1.89981 2.84863 3.62656C2.84863 5.35332 4.24844 6.75312 5.9752 6.75312Z" fill="#0A0F24"/>
</g>
<defs>
<clipPath id="clip0_2001_3759">
<rect width="24" height="24" fill="white" transform="translate(0.5 0.5)"/>
</clipPath>
</defs>
</svg>
