<svg width="60" height="61" viewBox="0 0 60 61" fill="none" xmlns="http://www.w3.org/2000/svg">
<rect y="0.875977" width="60" height="60" rx="10" fill="white"/>
<path d="M31.6367 16.4745C32.3458 16.2046 33.1444 16.2909 33.8848 16.7186C35.0722 17.4049 35.4012 19.4011 34.9199 22.9989C34.735 24.3814 34.4686 25.7018 34.2744 26.5819H40.6113C42.2666 26.5819 43.6132 27.9287 43.6133 29.5839C43.6133 30.2165 43.4166 30.8045 43.0811 31.2889C43.9568 31.8139 44.5449 32.7729 44.5449 33.8661C44.5448 34.9591 43.9568 35.9173 43.0811 36.4423C43.4166 36.9268 43.6133 37.5146 43.6133 38.1473C43.6133 39.3332 42.9226 40.3611 41.9219 40.8485C42.2074 41.3077 42.372 41.8492 42.3721 42.4286C42.3721 44.0838 41.0254 45.4305 39.3701 45.4305H32.4658C29.3018 45.4305 26.1997 44.9036 23.2275 43.8622V28.3016C24.8312 27.0911 27.4173 24.9016 28.2617 22.8163L29.9277 18.4549C30.3493 17.1962 31.089 16.6831 31.6367 16.4745ZM21.5049 29.1102V43.4813H16.3164C15.8411 43.4811 15.4561 43.0954 15.4561 42.62V29.9716C15.4561 29.4962 15.841 29.1104 16.3164 29.1102H21.5049Z" fill="black"/>
</svg>
