<svg width="60" height="61" viewBox="0 0 60 61" fill="none" xmlns="http://www.w3.org/2000/svg">
<rect y="0.875977" width="60" height="60" rx="10" fill="white"/>
<path d="M45.9375 28.2197V33.5322C45.9375 34.9973 44.7463 36.1885 43.2812 36.1885H42.558C41.5422 42.2086 36.3055 46.8135 30 46.8135C29.4127 46.8135 28.9375 46.3383 28.9375 45.751C28.9375 45.1637 29.4127 44.6885 30 44.6885C35.8583 44.6885 40.625 39.9218 40.625 34.0635V27.6885C40.625 21.8302 35.8583 17.0635 30 17.0635C24.1417 17.0635 19.375 21.8302 19.375 27.6885V35.126C19.375 35.7133 18.8998 36.1885 18.3125 36.1885H16.7188C15.2537 36.1885 14.0625 34.9973 14.0625 33.5322V28.2197C14.0625 26.7546 15.2537 25.5635 16.7188 25.5635H17.442C18.4578 19.5433 23.6945 14.9385 30 14.9385C36.3055 14.9385 41.5422 19.5433 42.558 25.5635H43.2812C44.7463 25.5635 45.9375 26.7546 45.9375 28.2197ZM30 19.1885C25.3132 19.1885 21.5 23.0016 21.5 27.6885V33.001C21.5 37.6878 25.3132 41.501 30 41.501C34.6868 41.501 38.5 37.6878 38.5 33.001V27.6885C38.5 23.0016 34.6868 19.1885 30 19.1885Z" fill="#0A0F24"/>
</svg>
