<svg width="60" height="60" viewBox="0 0 60 60" fill="none" xmlns="http://www.w3.org/2000/svg">
<rect width="60" height="60" rx="10" fill="#23273A"/>
<path d="M31.6367 15.5985C32.3458 15.3286 33.1444 15.4149 33.8848 15.8426C35.0722 16.5289 35.4012 18.5252 34.9199 22.1229C34.735 23.5054 34.4686 24.8258 34.2744 25.7059H40.6113C42.2666 25.7059 43.6132 27.0527 43.6133 28.7079C43.6133 29.3405 43.4166 29.9285 43.0811 30.413C43.9568 30.938 44.5449 31.8969 44.5449 32.9901C44.5448 34.0831 43.9568 35.0413 43.0811 35.5663C43.4166 36.0508 43.6133 36.6387 43.6133 37.2714C43.6133 38.4572 42.9226 39.4851 41.9219 39.9725C42.2074 40.4317 42.372 40.9733 42.3721 41.5526C42.3721 43.2079 41.0254 44.5546 39.3701 44.5546H32.4658C29.3018 44.5546 26.1997 44.0276 23.2275 42.9862V27.4257C24.8312 26.2151 27.4173 24.0256 28.2617 21.9403L29.9277 17.579C30.3493 16.3202 31.089 15.8071 31.6367 15.5985ZM21.5049 28.2342V42.6053H16.3164C15.8411 42.6051 15.4561 42.2194 15.4561 41.744V29.0956C15.4561 28.6202 15.841 28.2345 16.3164 28.2342H21.5049Z" fill="#ECF100"/>
</svg>
