<svg width="24" height="25" viewBox="0 0 24 25" fill="none" xmlns="http://www.w3.org/2000/svg">
<path d="M14.5068 3.32659C14.367 3.18091 14.1888 3.0817 13.9949 3.04151C13.8009 3.00131 13.5999 3.02193 13.4171 3.10076C13.2344 3.17959 13.0782 3.31309 12.9684 3.48437C12.8585 3.65566 12.7998 3.85704 12.7998 4.06305V7.70888C9.92754 7.73992 7.18281 8.94934 5.16102 11.0748C3.13923 13.2002 2.00343 16.0703 2 19.0625V20.9373C2.0001 21.1608 2.06922 21.3784 2.19715 21.5579C2.32508 21.7374 2.50504 21.8693 2.71045 21.9341C2.80429 21.964 2.90188 21.9791 3 21.9789C3.16461 21.9789 3.32667 21.9365 3.47181 21.8556C3.61694 21.7747 3.74066 21.6577 3.832 21.5151C7.65183 15.5468 11.3149 15.1206 12.7998 15.2447V19.0624C12.7998 19.2684 12.8584 19.4698 12.9683 19.6411C13.0782 19.8124 13.2344 19.9459 13.4171 20.0247C13.5998 20.1036 13.8008 20.1242 13.9948 20.084C14.1888 20.0438 14.3669 19.9446 14.5068 19.7989L21.707 12.2987C21.7998 12.202 21.8735 12.0872 21.9238 11.9608C21.9741 11.8344 21.9999 11.699 21.9999 11.5622C21.9999 11.4254 21.9741 11.29 21.9238 11.1636C21.8735 11.0372 21.7998 10.9224 21.707 10.8257L14.5068 3.32659Z" fill="#ECF100"/>
</svg>
