<svg width="18" height="19" viewBox="0 0 18 19" fill="none" xmlns="http://www.w3.org/2000/svg">
<g clip-path="url(#clip0_2001_5162)">
<path d="M9 0.437988C7.21052 0.440362 5.49501 1.15228 4.22965 2.41764C2.96429 3.683 2.25237 5.39851 2.25 7.18799C2.25 12.0339 8.53875 18.1033 8.80594 18.3592C8.85791 18.4097 8.92753 18.438 9 18.438C9.07247 18.438 9.14209 18.4097 9.19406 18.3592C9.46125 18.1033 15.75 12.0339 15.75 7.18799C15.7476 5.39851 15.0357 3.683 13.7703 2.41764C12.505 1.15228 10.7895 0.440362 9 0.437988ZM9 10.2817C8.38811 10.2817 7.78997 10.1003 7.2812 9.76035C6.77244 9.4204 6.37591 8.93722 6.14175 8.37192C5.90759 7.80661 5.84632 7.18456 5.9657 6.58443C6.08507 5.9843 6.37972 5.43305 6.81239 5.00038C7.24506 4.56771 7.79631 4.27306 8.39644 4.15368C8.99657 4.03431 9.61862 4.09558 10.1839 4.32974C10.7492 4.56389 11.2324 4.96043 11.5724 5.46919C11.9123 5.97796 12.0938 6.5761 12.0938 7.18799C12.0933 8.00835 11.7672 8.79497 11.1871 9.37506C10.607 9.95514 9.82036 10.2812 9 10.2817Z" fill="#ECF100"/>
</g>
<defs>
<clipPath id="clip0_2001_5162">
<rect width="18" height="18" fill="white" transform="translate(0 0.437988)"/>
</clipPath>
</defs>
</svg>
