<svg width="95" height="43" viewBox="0 0 95 43" fill="none" xmlns="http://www.w3.org/2000/svg">
<g clip-path="url(#clip0_2001_5152)">
<path d="M15.0543 11.9789H4.95496C2.22435 11.9789 0 14.1858 0 16.8952V27.6167C0 28.047 0.353732 28.3979 0.787417 28.3979H0.930061C1.36368 28.3979 1.71748 28.047 1.71748 27.6167V16.8952C1.71748 15.1228 3.1689 13.6832 4.95502 13.6832H15.0544C16.8404 13.6832 18.2919 15.1228 18.2919 16.8952V27.6167C18.2919 28.047 18.6456 28.3979 19.0793 28.3979H19.222C19.6556 28.3979 20.0093 28.047 20.0093 27.6167V16.8952C20.0093 14.1858 17.785 11.9789 15.0544 11.9789H15.0543ZM10.0046 0C6.89605 0 4.37118 2.50454 4.37118 5.58914C4.37118 8.67327 6.89598 11.1783 10.0046 11.1783C13.1132 11.1783 15.6381 8.67327 15.6381 5.58914C15.6381 2.50461 13.1132 0 10.0046 0ZM10.0046 9.47391C7.84053 9.47391 6.08866 7.73608 6.08866 5.58914C6.08866 3.44207 7.84053 1.7039 10.0046 1.7039C12.1686 1.7039 13.9205 3.45026 13.9205 5.58914C13.9205 7.72762 12.1686 9.47391 10.0046 9.47391Z" fill="black"/>
<path fill-rule="evenodd" clip-rule="evenodd" d="M4.70564 27.7985V34.319C4.70564 34.6768 4.95525 34.9772 5.30925 35.0457C5.66291 35.1143 6.00798 34.9292 6.14399 34.5979C7.11128 32.2373 8.08975 29.8804 9.05481 27.5199C9.17146 27.2346 9.4363 27.0577 9.7465 27.0577H10.1975C10.5058 27.0577 10.7688 27.232 10.8869 27.5143L13.8683 34.6396C14.0062 34.9691 14.3512 35.1518 14.7042 35.0818C15.0571 35.0117 15.3048 34.7118 15.3045 34.3546C15.3022 32.1691 15.3197 29.9795 15.323 27.7974C15.3238 27.3898 15.6588 27.0577 16.0697 27.0577H16.1892C16.6004 27.0577 16.9359 27.3905 16.9359 27.7985V40.1287C16.9359 40.5367 16.6004 40.8695 16.1892 40.8695H15.2903C14.9827 40.8695 14.7205 40.6964 14.6016 40.4147L10.7131 31.1947C10.6952 31.1523 10.6804 31.1161 10.6633 31.0734C10.6573 31.0582 10.651 31.0432 10.6451 31.0277C10.5307 30.7384 10.2636 30.557 9.95001 30.557C9.63683 30.557 9.36941 30.7377 9.255 31.0269C8.01054 34.1681 6.67475 37.289 5.38724 40.4095C5.26985 40.6937 5.00575 40.8695 4.69629 40.8695H3.82039C3.40918 40.8695 3.07373 40.5367 3.07373 40.1287V27.7984C3.07373 27.3904 3.40918 27.0576 3.82039 27.0576H3.95891C4.37012 27.0576 4.70557 27.3904 4.70557 27.7984L4.70564 27.7985Z" fill="black"/>
<path d="M25.5293 13.8545H33.5534V24.9672H31.6675V15.4961H27.4155V24.9672H25.5293V13.8545ZM42.6033 21.635H37.6071C37.7394 23.0576 38.5114 23.769 39.9232 23.769C40.5078 23.769 41.1972 23.6266 41.9914 23.3421L42.3883 24.6389C41.484 25.0219 40.5905 25.2135 39.7083 25.2135C38.4176 25.2135 37.4332 24.8496 36.755 24.1218C36.0765 23.3942 35.7375 22.3244 35.7375 20.9129C35.7375 19.5342 36.0601 18.4726 36.7053 17.7286C37.3504 16.9842 38.2356 16.6123 39.3607 16.6123C40.4194 16.6123 41.2248 16.9623 41.7761 17.6628C42.3277 18.363 42.6033 19.3644 42.6033 20.6666V21.635H42.6033ZM40.949 20.2071C40.949 19.5615 40.8084 19.039 40.5271 18.6395C40.2458 18.24 39.857 18.0404 39.3607 18.0404C38.8533 18.0404 38.4426 18.2374 38.128 18.6312C37.8138 19.0254 37.6289 19.5504 37.5738 20.2071H40.949H40.949ZM44.4069 28.2008V16.8421H45.7306L45.8793 17.6462C46.8057 16.9461 47.6056 16.5958 48.2784 16.5958C49.3593 16.5958 50.1618 16.9432 50.6855 17.6383C51.2096 18.3331 51.4714 19.3753 51.4714 20.7652C51.4714 22.122 51.1737 23.2 50.5782 23.9988C49.9824 24.7975 49.1443 25.197 48.0635 25.197C47.7435 25.197 47.41 25.137 47.0624 25.0165C46.7148 24.8961 46.431 24.7648 46.2103 24.6224V28.2009H44.407L44.4069 28.2008ZM47.7655 23.769C48.3832 23.769 48.8434 23.4981 49.1468 22.9563C49.4502 22.4147 49.6017 21.6951 49.6017 20.7979C49.6017 19.8679 49.4723 19.1756 49.2132 18.7214C48.954 18.2673 48.4934 18.0404 47.8315 18.0404C47.5781 18.0404 47.3048 18.1033 47.0127 18.2291C46.7205 18.355 46.4531 18.5165 46.2103 18.7132V23.2108C46.6735 23.583 47.1921 23.769 47.7655 23.769H47.7655ZM56.8814 25.2135C55.5799 25.2135 54.5899 24.8495 53.9117 24.1217C53.2332 23.3942 52.8943 22.3243 52.8943 20.9129C52.8943 19.5011 53.2223 18.4287 53.8787 17.6955C54.5348 16.9623 55.4751 16.5957 56.6994 16.5957C57.5045 16.5957 58.365 16.8036 59.2805 17.2196L58.8669 18.4999C58.4366 18.3356 58.0699 18.218 57.7665 18.147C57.4631 18.0759 57.1681 18.0403 56.8814 18.0403C55.4696 18.0403 54.7639 18.9922 54.7639 20.8963C54.7639 22.8113 55.5193 23.7689 57.0304 23.7689C57.3171 23.7689 57.6175 23.7387 57.9322 23.6786C58.2464 23.6186 58.6241 23.5118 59.0652 23.3586L59.4295 24.6554C58.4809 25.0273 57.6314 25.2135 56.8814 25.2135H56.8814ZM64.2437 25.2135C63.0306 25.2135 62.1012 24.8442 61.456 24.1055C60.8108 23.3668 60.4882 22.297 60.4882 20.8963C60.4882 19.5064 60.8108 18.4423 61.456 17.7037C62.1012 16.9651 63.0306 16.5957 64.2437 16.5957C65.446 16.5957 66.367 16.9622 67.0068 17.6955C67.6465 18.4287 67.9662 19.4957 67.9662 20.8963C67.9662 22.297 67.649 23.3668 67.015 24.1055C66.3808 24.8442 65.4569 25.2135 64.2437 25.2135ZM64.2437 23.769C65.479 23.769 66.0967 22.8113 66.0967 20.8964C66.0967 18.9923 65.479 18.0404 64.2437 18.0404C62.9864 18.0404 62.3578 18.9923 62.3578 20.8964C62.3578 22.8113 62.9864 23.769 64.2437 23.769ZM77.0824 16.8421V24.9672H75.2625V21.5858H71.788V24.9672H69.9848V16.8421H71.788V20.1412H75.2625V16.8421H77.0824ZM81.4998 25.1969C80.6614 25.1969 80.0133 24.9891 79.5559 24.5734C79.0981 24.1573 78.8691 23.5719 78.8691 22.817C78.8691 22.0507 79.1257 21.4599 79.6386 21.0441C80.1515 20.6283 80.7469 20.3518 81.4255 20.2152C82.1036 20.0782 82.9007 19.9771 83.816 19.9114V19.4025C83.816 19.0306 83.7029 18.7106 83.4767 18.4423C83.2509 18.1744 82.8786 18.0402 82.36 18.0402C81.6543 18.0402 80.8379 18.2316 79.9115 18.6145L79.5309 17.3343C80.0492 17.1045 80.5621 16.9268 81.0695 16.8009C81.577 16.6751 82.112 16.6121 82.6745 16.6121C83.7775 16.6121 84.5357 16.861 84.9493 17.359C85.3629 17.8568 85.5698 18.5652 85.5698 19.4847V22.8989C85.5698 23.457 85.8454 23.7961 86.397 23.9166L85.9667 25.0983C85.5586 25.0983 85.178 25.0191 84.8253 24.8603C84.4723 24.7017 84.2132 24.4528 84.0475 24.1134C83.6727 24.4528 83.2921 24.7182 82.9061 24.9095C82.5201 25.1012 82.0511 25.1968 81.4998 25.1968V25.1969ZM82.0293 23.8675C82.3269 23.8675 82.6469 23.788 82.9888 23.6294C83.3306 23.4709 83.6064 23.2709 83.8159 23.0304V21.0115C81.7205 21.1097 80.6726 21.657 80.6726 22.6528C80.6726 23.0139 80.7938 23.3066 81.0366 23.531C81.2791 23.7554 81.6101 23.8676 82.0293 23.8676V23.8675ZM87.1415 23.851C87.4833 23.7197 87.7286 23.5636 87.8776 23.3831C88.0266 23.2025 88.1176 22.9918 88.1506 22.7512C88.1836 22.5103 88.2002 22.1547 88.2002 21.6843V16.8421H95V24.9672H93.2297V18.1716H90.0035V22.0454C90.0035 22.5926 89.9622 23.0548 89.8795 23.4324C89.7969 23.81 89.5707 24.1602 89.201 24.4828C88.8317 24.8057 88.2608 25.033 87.4888 25.1642L87.1415 23.851Z" fill="black"/>
<path d="M25.7622 39.642V28.5293H28.1613L30.7587 34.5208C30.825 34.6848 30.891 34.92 30.9573 35.2264H31.0069C31.062 34.9312 31.1283 34.6959 31.2055 34.5208L33.8029 28.5293H36.2017V39.642H34.3488V32.5674C34.3488 31.9327 34.3818 31.4512 34.4481 31.1229L34.3985 31.1066L31.6688 37.4589H30.2955L27.5657 31.1066L27.5161 31.1229C27.5821 31.4512 27.6154 31.9273 27.6154 32.5509V39.642H25.7622ZM40.8014 39.8718C39.9631 39.8718 39.315 39.6639 38.8575 39.2482C38.3997 38.8321 38.1707 38.2467 38.1707 37.4918C38.1707 36.7255 38.4273 36.1347 38.9402 35.7189C39.4531 35.3031 40.0486 35.0267 40.7271 34.89C41.4053 34.753 42.2023 34.6519 43.1176 34.5861V34.0773C43.1176 33.7054 43.0046 33.3853 42.7784 33.1171C42.5525 32.8492 42.1803 32.715 41.6616 32.715C40.9559 32.715 40.1396 32.9064 39.2132 33.2894L38.8325 32.0091C39.3509 31.7793 39.8638 31.6016 40.3712 31.4757C40.8786 31.3499 41.4136 31.2869 41.9762 31.2869C43.0792 31.2869 43.8374 31.5358 44.251 32.0338C44.6646 32.5316 44.8715 33.2401 44.8715 34.1595V37.5737C44.8715 38.1318 45.1471 38.4709 45.6987 38.5914L45.2684 39.7731C44.8603 39.7731 44.4797 39.694 44.127 39.5351C43.774 39.3765 43.5149 39.1276 43.3493 38.7882C42.9744 39.1276 42.5938 39.393 42.2079 39.5843C41.8218 39.776 41.3529 39.8717 40.8015 39.8717L40.8014 39.8718ZM41.3309 38.5423C41.6286 38.5423 41.9486 38.4628 42.2905 38.3042C42.6323 38.1457 42.9081 37.9458 43.1176 37.7052V35.6863C41.0222 35.7845 39.9743 36.3318 39.9743 37.3276C39.9743 37.6887 40.0954 37.9814 40.3382 38.2058C40.5807 38.4302 40.9117 38.5424 41.3309 38.5424V38.5423ZM47.4026 42.8756V31.5169H48.7263L48.8749 32.321C49.8014 31.6208 50.6013 31.2705 51.274 31.2705C52.3549 31.2705 53.1574 31.6179 53.6812 32.313C54.2052 33.0079 54.467 34.0501 54.467 35.4399C54.467 36.7967 54.1693 37.8748 53.5738 38.6735C52.978 39.4722 52.1399 39.8718 51.059 39.8718C50.739 39.8718 50.4055 39.8117 50.0579 39.6913C49.7104 39.5708 49.4265 39.4395 49.2058 39.2971V42.8756H47.4025H47.4026ZM50.7612 38.4438C51.3788 38.4438 51.8392 38.1729 52.1426 37.6311C52.4459 37.0895 52.5974 36.3699 52.5974 35.4727C52.5974 34.5427 52.468 33.8504 52.2088 33.3963C51.9497 32.9421 51.489 32.7152 50.8272 32.7152C50.5738 32.7152 50.3006 32.7781 50.0084 32.904C49.7162 33.0299 49.4487 33.1913 49.2059 33.3881V37.8857C49.6691 38.2579 50.1878 38.4438 50.7612 38.4438V38.4438ZM56.4856 31.5169H58.2559V34.7833H59.2486L60.0924 32.8629C60.5995 31.8452 61.5648 31.3198 62.9875 31.2871V32.6987C62.3368 32.7644 61.8626 33.0982 61.5648 33.7001L60.688 35.5385L62.9544 39.2317V39.642H61.1345L59.3313 36.5396H58.2559V39.642H56.4856V31.5169ZM70.4657 36.3098H65.4695C65.6018 37.7325 66.3739 38.4438 67.7856 38.4438C68.3703 38.4438 69.0597 38.3014 69.8538 38.0169L70.2507 39.3136C69.3464 39.6966 68.4529 39.8883 67.5706 39.8883C66.28 39.8883 65.2955 39.5243 64.6173 38.7965C63.9388 38.069 63.5998 36.9992 63.5998 35.5877C63.5998 34.2089 63.9224 33.1473 64.5676 32.4033C65.2128 31.659 66.0979 31.2871 67.223 31.2871C68.2818 31.2871 69.0872 31.637 69.6384 32.3375C70.1901 33.0377 70.4656 34.0392 70.4656 35.3414V36.3098L70.4657 36.3098ZM68.8114 34.8819C68.8114 34.2363 68.6708 33.7138 68.3895 33.3143C68.1082 32.9148 67.7193 32.7152 67.2231 32.7152C66.7156 32.7152 66.305 32.9123 65.9904 33.306C65.6761 33.7002 65.4913 34.2252 65.4362 34.8819H68.8113H68.8114ZM73.0632 39.642V32.9612H71.0946L71.0117 31.517H76.9016L76.819 32.9612H74.8501V39.642H73.0632Z" fill="black"/>
</g>
<defs>
<clipPath id="clip0_2001_5152">
<rect width="95" height="42.8761" fill="white"/>
</clipPath>
</defs>
</svg>
