<svg width="102" height="45" viewBox="0 0 102 45" fill="none" xmlns="http://www.w3.org/2000/svg">
<g clip-path="url(#clip0_2001_4986)">
<path d="M16.0051 12.5723H5.2679C2.36483 12.5723 0 14.8885 0 17.7321V28.9847C0 29.4363 0.376073 29.8047 0.837149 29.8047H0.988802C1.44981 29.8047 1.82595 29.4363 1.82595 28.9847V17.7321C1.82595 15.8719 3.36904 14.361 5.26797 14.361H16.0052C17.904 14.361 19.4472 15.8719 19.4472 17.7321V28.9847C19.4472 29.4363 19.8232 29.8047 20.2843 29.8047H20.436C20.897 29.8047 21.2731 29.4363 21.2731 28.9847V17.7321C21.2731 14.8885 18.9082 12.5723 16.0052 12.5723H16.0051ZM10.6365 0C7.33159 0 4.64725 2.62861 4.64725 5.866C4.64725 9.10291 7.33151 11.732 10.6365 11.732C13.9414 11.732 16.6257 9.10291 16.6257 5.866C16.6257 2.62868 13.9414 0 10.6365 0ZM10.6365 9.9432C8.33572 9.9432 6.4732 8.1193 6.4732 5.866C6.4732 3.61257 8.33572 1.78831 10.6365 1.78831C12.9372 1.78831 14.7997 3.62117 14.7997 5.866C14.7997 8.11041 12.9372 9.9432 10.6365 9.9432Z" fill="white"/>
<path fill-rule="evenodd" clip-rule="evenodd" d="M5.00255 29.1751V36.0185C5.00255 36.3941 5.26793 36.7093 5.64429 36.7813C6.02029 36.8532 6.38715 36.659 6.53175 36.3113C7.56013 33.8337 8.6004 31.3601 9.62641 28.8826C9.75043 28.5832 10.032 28.3975 10.3618 28.3975H10.8412C11.169 28.3975 11.4486 28.5805 11.5742 28.8768L14.744 36.355C14.8905 36.7008 15.2574 36.8926 15.6326 36.8191C16.0078 36.7456 16.2711 36.4308 16.2708 36.0559C16.2684 33.7622 16.287 31.4641 16.2905 29.1739C16.2913 28.7461 16.6475 28.3975 17.0843 28.3975H17.2114C17.6486 28.3975 18.0052 28.7468 18.0052 29.175V42.1161C18.0052 42.5443 17.6486 42.8936 17.2114 42.8936H16.2557C15.9287 42.8936 15.6499 42.7118 15.5235 42.4162L11.3894 32.7394C11.3705 32.695 11.3546 32.657 11.3365 32.6121C11.3301 32.5963 11.3235 32.5805 11.3171 32.5642C11.1955 32.2606 10.9115 32.0702 10.5781 32.0702C10.2452 32.0702 9.96088 32.2598 9.83924 32.5634C8.51619 35.8602 7.09604 39.1356 5.7272 42.4107C5.6024 42.709 5.32162 42.8935 4.99262 42.8935H4.0614C3.62422 42.8935 3.26758 42.5442 3.26758 42.116V29.1749C3.26758 28.7468 3.62422 28.3975 4.0614 28.3975H4.20866C4.64584 28.3975 5.00248 28.7468 5.00248 29.1749L5.00255 29.1751Z" fill="white"/>
<path d="M27.1416 14.541H35.6725V26.2042H33.6675V16.264H29.1469V26.2042H27.1416V14.541ZM45.294 22.707H39.9822C40.1228 24.2001 40.9437 24.9466 42.4446 24.9466C43.0661 24.9466 43.7991 24.7971 44.6434 24.4986L45.0654 25.8596C44.104 26.2616 43.154 26.4627 42.2161 26.4627C40.8439 26.4627 39.7973 26.0808 39.0762 25.3169C38.3549 24.5533 37.9945 23.4305 37.9945 21.9491C37.9945 20.502 38.3375 19.3879 39.0234 18.607C39.7093 17.8258 40.6504 17.4355 41.8465 17.4355C42.9721 17.4355 43.8284 17.8027 44.4145 18.5379C45.001 19.2728 45.2939 20.3239 45.2939 21.6906V22.707H45.294ZM43.5352 21.2083C43.5352 20.5307 43.3857 19.9824 43.0867 19.5631C42.7876 19.1438 42.3742 18.9343 41.8466 18.9343C41.3071 18.9343 40.8705 19.1411 40.5361 19.5544C40.2019 19.968 40.0054 20.5191 39.9468 21.2083H43.5351H43.5352ZM47.2115 29.598V17.6766H48.6188L48.7768 18.5206C49.7618 17.7857 50.6122 17.4181 51.3275 17.4181C52.4767 17.4181 53.3298 17.7827 53.8866 18.5123C54.4438 19.2415 54.7221 20.3353 54.7221 21.794C54.7221 23.2181 54.4057 24.3495 53.7725 25.1878C53.1391 26.0261 52.2481 26.4454 51.099 26.4454C50.7588 26.4454 50.4042 26.3824 50.0347 26.256C49.6652 26.1296 49.3634 25.9917 49.1287 25.8423V29.598H47.2116L47.2115 29.598ZM50.7822 24.9466C51.4389 24.9466 51.9282 24.6624 52.2507 24.0937C52.5733 23.5252 52.7344 22.77 52.7344 21.8283C52.7344 20.8523 52.5968 20.1257 52.3213 19.6491C52.0458 19.1724 51.556 18.9342 50.8524 18.9342C50.5829 18.9342 50.2924 19.0003 49.9819 19.1323C49.6712 19.2644 49.3869 19.4339 49.1287 19.6404V24.3608C49.6213 24.7514 50.1726 24.9466 50.7822 24.9466H50.7822ZM60.4738 26.4627C59.0901 26.4627 58.0377 26.0807 57.3166 25.3168C56.5953 24.5532 56.2349 23.4304 56.2349 21.949C56.2349 20.4673 56.5837 19.3418 57.2815 18.5723C57.9791 17.8027 58.9787 17.418 60.2804 17.418C61.1363 17.418 62.0511 17.6362 63.0244 18.0728L62.5847 19.4165C62.1273 19.2441 61.7374 19.1206 61.4148 19.0462C61.0923 18.9715 60.7786 18.9342 60.4738 18.9342C58.9729 18.9342 58.2226 19.9332 58.2226 21.9317C58.2226 23.9415 59.0257 24.9465 60.6322 24.9465C60.9371 24.9465 61.2565 24.9149 61.591 24.8518C61.9251 24.7888 62.3266 24.6767 62.7956 24.5159L63.1828 25.8769C62.1744 26.2672 61.2712 26.4627 60.4739 26.4627H60.4738ZM68.3012 26.4627C67.0114 26.4627 66.0234 26.0751 65.3374 25.2998C64.6514 24.5245 64.3085 23.4017 64.3085 21.9317C64.3085 20.4729 64.6514 19.3561 65.3374 18.5809C66.0234 17.8057 67.0114 17.418 68.3012 17.418C69.5793 17.418 70.5585 17.8027 71.2387 18.5723C71.9188 19.3418 72.2588 20.4617 72.2588 21.9317C72.2588 23.4017 71.9215 24.5245 71.2475 25.2998C70.5732 26.0751 69.5909 26.4627 68.3012 26.4627ZM68.3012 24.9466C69.6144 24.9466 70.2712 23.9416 70.2712 21.9317C70.2712 19.9333 69.6144 18.9342 68.3012 18.9342C66.9644 18.9342 66.2961 19.9333 66.2961 21.9317C66.2961 23.9416 66.9644 24.9466 68.3012 24.9466ZM81.9507 17.6766V26.2042H80.0159V22.6553H76.3219V26.2042H74.4048V17.6766H76.3219V21.1392H80.0159V17.6766H81.9507ZM86.647 26.4453C85.7558 26.4453 85.0668 26.2272 84.5804 25.7908C84.0937 25.3542 83.8502 24.7398 83.8502 23.9475C83.8502 23.1433 84.123 22.5231 84.6683 22.0868C85.2136 21.6504 85.8467 21.3602 86.5681 21.2168C87.2891 21.0731 88.1364 20.967 89.1096 20.8979V20.3639C89.1096 19.9735 88.9894 19.6376 88.7489 19.3561C88.5088 19.0749 88.113 18.9341 87.5616 18.9341C86.8113 18.9341 85.9434 19.1349 84.9584 19.5368L84.5539 18.1932C85.1049 17.952 85.6502 17.7655 86.1896 17.6334C86.7292 17.5013 87.2979 17.4352 87.896 17.4352C89.0686 17.4352 89.8747 17.6964 90.3145 18.2191C90.7542 18.7416 90.9742 19.4851 90.9742 20.4501V24.0334C90.9742 24.6191 91.2671 24.9751 91.8536 25.1015L91.3961 26.3418C90.9623 26.3418 90.5576 26.2587 90.1826 26.092C89.8074 25.9256 89.5318 25.6643 89.3557 25.3081C88.9572 25.6643 88.5526 25.9428 88.1422 26.1437C87.7318 26.3448 87.2332 26.4452 86.647 26.4452V26.4453ZM87.21 25.05C87.5265 25.05 87.8667 24.9666 88.2301 24.8002C88.5935 24.6337 88.8868 24.4239 89.1095 24.1714V22.0526C86.8817 22.1556 85.7677 22.73 85.7677 23.7752C85.7677 24.1542 85.8965 24.4613 86.1546 24.6968C86.4124 24.9324 86.7643 25.0501 87.21 25.0501V25.05ZM92.6451 25.0327C93.0085 24.8949 93.2693 24.7311 93.4277 24.5416C93.5861 24.3521 93.6828 24.131 93.7179 23.8785C93.753 23.6256 93.7707 23.2524 93.7707 22.7587V17.6766H101V26.2042H99.1178V19.072H95.6878V23.1376C95.6878 23.712 95.6439 24.1971 95.5561 24.5933C95.4682 24.9897 95.2277 25.3572 94.8347 25.6958C94.442 26.0348 93.8351 26.2732 93.0143 26.411L92.6451 25.0327Z" fill="white"/>
<path d="M27.3892 41.6066V29.9434H29.9398L32.7013 36.2316C32.7717 36.4038 32.8419 36.6506 32.9124 36.9722H32.9651C33.0237 36.6623 33.0942 36.4155 33.1763 36.2316L35.9377 29.9434H38.488V41.6066H36.5181V34.1815C36.5181 33.5154 36.5531 33.0099 36.6236 32.6654L36.5709 32.6484L33.6687 39.3153H32.2087L29.3066 32.6484L29.2538 32.6654C29.324 33.01 29.3594 33.5097 29.3594 34.1642V41.6066H27.3892ZM43.3782 41.8477C42.4869 41.8477 41.7979 41.6295 41.3116 41.1932C40.8249 40.7565 40.5814 40.1421 40.5814 39.3498C40.5814 38.5456 40.8542 37.9255 41.3994 37.4891C41.9447 37.0527 42.5779 36.7626 43.2992 36.6191C44.0202 36.4754 44.8676 36.3693 45.8407 36.3002V35.7661C45.8407 35.3758 45.7205 35.0399 45.48 34.7584C45.2399 34.4772 44.8442 34.3364 44.2927 34.3364C43.5424 34.3364 42.6746 34.5373 41.6896 34.9392L41.285 33.5955C41.8361 33.3544 42.3813 33.1679 42.9209 33.0357C43.4603 32.9036 44.0291 32.8376 44.6272 32.8376C45.7998 32.8376 46.6059 33.0988 47.0456 33.6215C47.4853 34.1439 47.7054 34.8875 47.7054 35.8524V39.4358C47.7054 40.0215 47.9983 40.3774 48.5848 40.5039L48.1274 41.7442C47.6935 41.7442 47.2888 41.6611 46.9139 41.4943C46.5386 41.3279 46.2631 41.0666 46.087 40.7104C45.6885 41.0666 45.2838 41.3452 44.8735 41.546C44.4631 41.7471 43.9645 41.8476 43.3783 41.8476L43.3782 41.8477ZM43.9412 40.4524C44.2576 40.4524 44.5979 40.369 44.9613 40.2025C45.3247 40.0361 45.6179 39.8263 45.8407 39.5738V37.4549C43.6129 37.558 42.4989 38.1324 42.4989 39.1775C42.4989 39.5565 42.6276 39.8637 42.8857 40.0992C43.1436 40.3347 43.4954 40.4524 43.9412 40.4524V40.4524ZM50.3963 45.0003V33.079H51.8036L51.9617 33.9229C52.9466 33.188 53.797 32.8204 54.5123 32.8204C55.6614 32.8204 56.5145 33.185 57.0714 33.9145C57.6286 34.6438 57.9068 35.7376 57.9068 37.1963C57.9068 38.6203 57.5904 39.7518 56.9573 40.5901C56.3238 41.4284 55.4328 41.8477 54.2837 41.8477C53.9434 41.8477 53.5889 41.7846 53.2194 41.6582C52.8498 41.5318 52.548 41.394 52.3134 41.2446V45.0003H50.3962H50.3963ZM53.967 40.3489C54.6237 40.3489 55.1131 40.0647 55.4356 39.496C55.7582 38.9276 55.9192 38.1723 55.9192 37.2307C55.9192 36.2546 55.7816 35.5281 55.5061 35.0514C55.2306 34.5747 54.7409 34.3366 54.0372 34.3366C53.7678 34.3366 53.4773 34.4026 53.1667 34.5347C52.856 34.6669 52.5716 34.8363 52.3135 35.0428V39.7633C52.806 40.1539 53.3574 40.349 53.967 40.349V40.3489ZM60.0529 33.079H61.935V36.5071H62.9905L63.8876 34.4917C64.4268 33.4235 65.4529 32.8721 66.9655 32.8378V34.3192C66.2737 34.3883 65.7696 34.7385 65.4529 35.3703L64.5208 37.2998L66.9304 41.1759V41.6066H64.9955L63.0784 38.3505H61.935V41.6066H60.0529V33.079ZM74.9161 38.1093H69.6043C69.7449 39.6024 70.5658 40.3489 72.0667 40.3489C72.6883 40.3489 73.4212 40.1995 74.2655 39.9009L74.6875 41.2619C73.726 41.6639 72.7761 41.865 71.8381 41.865C70.466 41.865 69.4193 41.4831 68.6982 40.7192C67.9769 39.9556 67.6165 38.8328 67.6165 37.3514C67.6165 35.9043 67.9595 34.7902 68.6455 34.0093C69.3314 33.2281 70.2724 32.8377 71.4686 32.8377C72.5942 32.8377 73.4504 33.205 74.0365 33.9402C74.6231 34.6751 74.9159 35.7262 74.9159 37.0929V38.1093L74.9161 38.1093ZM73.1573 36.6106C73.1573 35.9331 73.0078 35.3847 72.7087 34.9654C72.4097 34.5461 71.9962 34.3367 71.4686 34.3367C70.9291 34.3367 70.4925 34.5435 70.158 34.9567C69.8239 35.3704 69.6274 35.9214 69.5688 36.6106H73.1572H73.1573ZM77.6776 41.6066V34.5948H75.5846L75.4965 33.079H81.7584L81.6705 34.5948H79.5774V41.6066H77.6776Z" fill="white"/>
</g>
<defs>
<clipPath id="clip0_2001_4986">
<rect width="102" height="45" fill="white"/>
</clipPath>
</defs>
</svg>
