<svg width="26" height="26" viewBox="0 0 26 26" fill="none" xmlns="http://www.w3.org/2000/svg">
<path fill-rule="evenodd" clip-rule="evenodd" d="M24.167 6.94531C24.3408 6.39453 24.167 5.99414 23.3979 5.99414H20.8408C20.1958 5.99414 19.8979 6.34473 19.7241 6.71973C19.7241 6.71973 18.4087 9.92285 16.5718 11.9995C15.9761 12.6001 15.7031 12.8003 15.3804 12.8003C15.2065 12.8003 14.9829 12.6001 14.9829 12.0498V6.91943C14.9829 6.26904 14.7847 5.96875 14.2383 5.96875H10.2168C9.81933 5.96875 9.57129 6.26904 9.57129 6.56934C9.57129 7.19482 10.4897 7.34521 10.5889 9.09668V12.9023C10.5889 13.728 10.4424 13.8789 10.1172 13.8789C9.24853 13.8789 7.13867 10.6509 5.87305 6.97266C5.62695 6.24414 5.37695 5.96875 4.73145 5.96875H2.1499C1.40527 5.96875 1.28125 6.31885 1.28125 6.69434C1.28125 7.37012 2.1499 10.7729 5.32715 15.2769C7.43701 18.353 10.4404 20.0063 13.146 20.0063C14.7847 20.0063 14.9829 19.6309 14.9829 19.0054V16.6782C14.9829 15.9277 15.1318 15.8027 15.6533 15.8027C16.0254 15.8027 16.6958 16.0024 18.21 17.479C19.9473 19.2305 20.2451 20.0312 21.2134 20.0312H23.77C24.5146 20.0312 24.8623 19.6558 24.6636 18.9302C24.4404 18.2046 23.5962 17.1538 22.5039 15.9028C21.9082 15.2026 21.0146 14.4268 20.7417 14.0513C20.3696 13.5508 20.4687 13.3506 20.7417 12.9004C20.7168 12.9004 23.8447 8.44629 24.167 6.94336" fill="white"/>
</svg>
