<svg width="26" height="26" viewBox="0 0 26 26" fill="none" xmlns="http://www.w3.org/2000/svg">
<path d="M13.0028 2.58301H12.9976C7.25407 2.58301 2.5835 7.25488 2.5835 12.9997C2.5835 15.2783 3.31787 17.3903 4.56657 19.1051L3.26839 22.9749L7.2723 21.695C8.91943 22.7861 10.8843 23.4163 13.0028 23.4163C18.7463 23.4163 23.4168 18.7432 23.4168 12.9997C23.4168 7.25619 18.7463 2.58301 13.0028 2.58301ZM19.064 17.2926C18.8127 18.0023 17.8153 18.5908 17.0197 18.7627C16.4754 18.8786 15.7645 18.971 13.3713 17.9788C10.3101 16.7106 8.3387 13.5999 8.18506 13.3981C8.03792 13.1963 6.94808 11.751 6.94808 10.2562C6.94808 8.76139 7.70719 8.03353 8.01318 7.72103C8.26449 7.46452 8.67985 7.34733 9.07829 7.34733C9.20719 7.34733 9.32308 7.35384 9.42725 7.35905C9.73324 7.37207 9.88688 7.3903 10.0887 7.87337C10.34 8.47884 10.952 9.97363 11.0249 10.1273C11.0991 10.2809 11.1733 10.4893 11.0692 10.6911C10.9715 10.8994 10.8856 10.9919 10.7319 11.1689C10.5783 11.346 10.4325 11.4814 10.2788 11.6715C10.1382 11.8369 9.97933 12.014 10.1564 12.32C10.3335 12.6195 10.9455 13.6182 11.8465 14.4202C13.0093 15.4554 13.952 15.7861 14.2892 15.9268C14.5405 16.0309 14.84 16.0062 15.0236 15.8109C15.2567 15.5596 15.5444 15.1429 15.8374 14.7327C16.0457 14.4385 16.3088 14.402 16.5848 14.5062C16.866 14.6038 18.3543 15.3395 18.6603 15.4919C18.9663 15.6455 19.1681 15.7184 19.2423 15.8473C19.3153 15.9762 19.3153 16.5817 19.064 17.2926Z" fill="white"/>
</svg>
