<svg width="26" height="26" viewBox="0 0 26 26" fill="none" xmlns="http://www.w3.org/2000/svg">
<path d="M25.3357 7.76514C25.3357 5.56787 23.7195 3.80029 21.7225 3.80029C19.0174 3.67383 16.2586 3.625 13.4393 3.625H12.5604C9.74786 3.625 6.98418 3.67383 4.27911 3.80078C2.28692 3.80078 0.670707 5.57813 0.670707 7.77539C0.548637 9.51318 0.496879 11.2515 0.499809 12.9897C0.494926 14.728 0.550264 16.4679 0.665824 18.2095C0.665824 20.4067 2.28204 22.189 4.27422 22.189C7.11602 22.3208 10.0311 22.3794 12.9949 22.3745C15.9637 22.3843 18.8706 22.3224 21.7156 22.189C23.7127 22.189 25.3289 20.4067 25.3289 18.2095C25.4461 16.4663 25.4998 14.728 25.4949 12.9849C25.506 11.2466 25.4529 9.50667 25.3357 7.76514ZM10.6072 17.7798V8.18506L17.6873 12.98L10.6072 17.7798Z" fill="white"/>
</svg>
