<svg width="16" height="16" viewBox="0 0 16 16" fill="none" xmlns="http://www.w3.org/2000/svg">
<g clip-path="url(#clip0_2001_6341)">
<path d="M11.1498 4.16875C12.301 4.16875 13.2342 3.23554 13.2342 2.08437C13.2342 0.933206 12.301 0 11.1498 0C9.99864 0 9.06543 0.933206 9.06543 2.08437C9.06543 3.23554 9.99864 4.16875 11.1498 4.16875Z" fill="#0A0F24"/>
<path d="M15.1843 10.7311L13.9968 6.07168C13.7843 5.24043 13.0375 4.65918 12.1812 4.65918H10.1187C9.26246 4.65918 8.51246 5.24043 8.30308 6.07168L7.11558 10.7311C6.94058 11.4217 7.46246 12.0936 8.17496 12.0936H9.06246V15.0623C9.06246 15.5811 9.48121 15.9998 9.99996 15.9998H12.2968C12.8156 15.9998 13.2343 15.5811 13.2343 15.0623V12.0936H14.125C14.8375 12.0936 15.3593 11.4217 15.1843 10.7311Z" fill="#0A0F24"/>
<path d="M4.64062 4.6626H2.65625C1.62188 4.6626 0.78125 5.50322 0.78125 6.5376V9.90635C0.78125 10.372 1.11875 10.7563 1.5625 10.8313V15.0626C1.5625 15.5813 1.98125 16.0001 2.5 16.0001H4.79688C5.31563 16.0001 5.73438 15.5813 5.73438 15.0626V10.8313C6.17812 10.7563 6.51562 10.372 6.51562 9.90635V6.5376C6.51562 5.5001 5.67812 4.6626 4.64062 4.6626Z" fill="#0A0F24"/>
<path d="M3.6498 4.16875C4.80097 4.16875 5.73418 3.23554 5.73418 2.08437C5.73418 0.933206 4.80097 0 3.6498 0C2.49864 0 1.56543 0.933206 1.56543 2.08437C1.56543 3.23554 2.49864 4.16875 3.6498 4.16875Z" fill="#0A0F24"/>
</g>
<defs>
<clipPath id="clip0_2001_6341">
<rect width="16" height="16" fill="white"/>
</clipPath>
</defs>
</svg>
