<svg width="16" height="16" viewBox="0 0 16 16" fill="none" xmlns="http://www.w3.org/2000/svg">
<g clip-path="url(#clip0_2001_6335)">
<path d="M7.99981 0.799805C6.57578 0.799805 5.18373 1.22208 3.9997 2.01322C2.81567 2.80437 1.89283 3.92885 1.34788 5.24448C0.802924 6.56011 0.66034 8.00779 0.938154 9.40445C1.21597 10.8011 1.9017 12.084 2.90864 13.091C3.91558 14.0979 5.19849 14.7836 6.59516 15.0615C7.99182 15.3393 9.4395 15.1967 10.7551 14.6517C12.0708 14.1068 13.1952 13.1839 13.9864 11.9999C14.7775 10.8159 15.1998 9.42383 15.1998 7.9998C15.1977 6.09089 14.4384 4.26078 13.0886 2.91097C11.7388 1.56117 9.90871 0.801922 7.99981 0.799805ZM10.1654 10.1654C10.0154 10.3154 9.81194 10.3996 9.5998 10.3996C9.38767 10.3996 9.18423 10.3154 9.03421 10.1654L7.43421 8.5654C7.28417 8.41541 7.19985 8.21196 7.19981 7.9998V4.7998C7.19981 4.58763 7.28409 4.38415 7.43412 4.23412C7.58415 4.08409 7.78763 3.9998 7.99981 3.9998C8.21198 3.9998 8.41546 4.08409 8.56549 4.23412C8.71552 4.38415 8.79981 4.58763 8.79981 4.7998V7.6686L10.1654 9.0342C10.3154 9.18422 10.3996 9.38767 10.3996 9.5998C10.3996 9.81193 10.3154 10.0154 10.1654 10.1654Z" fill="#0A0F24"/>
</g>
<defs>
<clipPath id="clip0_2001_6335">
<rect width="16" height="16" fill="white"/>
</clipPath>
</defs>
</svg>
