<svg width="60" height="60" viewBox="0 0 60 60" fill="none" xmlns="http://www.w3.org/2000/svg">
<rect width="60" height="60" rx="10" fill="#23273A"/>
<path d="M36.693 21.8586C39.1392 21.8586 41.1223 19.8755 41.1223 17.4293C41.1223 14.9831 39.1392 13 36.693 13C34.2467 13 32.2637 14.9831 32.2637 17.4293C32.2637 19.8755 34.2467 21.8586 36.693 21.8586Z" fill="#ECF100"/>
<path d="M45.2673 35.8041L42.7438 25.9029C42.2923 24.1365 40.7051 22.9014 38.8856 22.9014H34.5028C32.6833 22.9014 31.0895 24.1365 30.6446 25.9029L28.1212 35.8041C27.7493 37.2717 28.8583 38.6994 30.3723 38.6994H32.2583V45.008C32.2583 46.1104 33.1481 47.0002 34.2505 47.0002H39.1313C40.2337 47.0002 41.1235 46.1104 41.1235 45.008V38.6994H43.0161C44.5301 38.6994 45.6391 37.2717 45.2673 35.8041Z" fill="#ECF100"/>
<path d="M22.8613 22.9077H18.6445C16.4465 22.9077 14.6602 24.694 14.6602 26.8921V34.0507C14.6602 35.0401 15.3773 35.8569 16.3203 36.0163V45.0077C16.3203 46.1101 17.2102 46.9999 18.3125 46.9999H23.1934C24.2957 46.9999 25.1855 46.1101 25.1855 45.0077V36.0163C26.1285 35.8569 26.8457 35.0401 26.8457 34.0507V26.8921C26.8457 24.6874 25.066 22.9077 22.8613 22.9077Z" fill="#ECF100"/>
<path d="M20.7555 21.8586C23.2017 21.8586 25.1848 19.8755 25.1848 17.4293C25.1848 14.9831 23.2017 13 20.7555 13C18.3092 13 16.3262 14.9831 16.3262 17.4293C16.3262 19.8755 18.3092 21.8586 20.7555 21.8586Z" fill="#ECF100"/>
</svg>
