<svg width="60" height="60" viewBox="0 0 60 60" fill="none" xmlns="http://www.w3.org/2000/svg">
<rect width="60" height="60" rx="10" fill="#23273A"/>
<path d="M29.9992 14.7002C26.9732 14.7002 24.0151 15.5975 21.499 17.2787C18.9829 18.9599 17.0219 21.3494 15.8639 24.1451C14.7058 26.9408 14.4029 30.0172 14.9932 32.9851C15.5836 35.953 17.0407 38.6792 19.1805 40.8189C21.3202 42.9587 24.0464 44.4158 27.0143 45.0062C29.9822 45.5966 33.0586 45.2936 35.8543 44.1355C38.65 42.9775 41.0395 41.0165 42.7207 38.5004C44.4019 35.9843 45.2992 33.0262 45.2992 30.0002C45.2947 25.9438 43.6813 22.0548 40.813 19.1864C37.9447 16.3181 34.0557 14.7047 29.9992 14.7002ZM34.6011 34.6021C34.2823 34.9208 33.85 35.0998 33.3992 35.0998C32.9484 35.0998 32.5161 34.9208 32.1973 34.6021L28.7973 31.2021C28.4785 30.8834 28.2993 30.451 28.2992 30.0002V23.2002C28.2992 22.7493 28.4783 22.3169 28.7971 21.9981C29.116 21.6793 29.5484 21.5002 29.9992 21.5002C30.4501 21.5002 30.8825 21.6793 31.2013 21.9981C31.5201 22.3169 31.6992 22.7493 31.6992 23.2002V29.2964L34.6011 32.1983C34.9198 32.5171 35.0989 32.9494 35.0989 33.4002C35.0989 33.851 34.9198 34.2833 34.6011 34.6021Z" fill="#ECF100"/>
</svg>
