<svg width="32" height="30" viewBox="0 0 32 30" fill="none" xmlns="http://www.w3.org/2000/svg">
<path d="M14.522 2.19663C14.9064 1.44796 15.0986 1.07362 15.3595 0.954021C15.5865 0.849962 15.8502 0.849962 16.0772 0.954021C16.338 1.07362 16.5302 1.44796 16.9146 2.19663L20.5611 9.29949C20.6745 9.52051 20.7313 9.63102 20.8142 9.71683C20.8876 9.7928 20.9756 9.85435 21.0734 9.89808C21.1839 9.94747 21.3107 9.96529 21.5644 10.0009L29.721 11.1472C30.5799 11.2679 31.0094 11.3283 31.2081 11.53C31.381 11.7055 31.4624 11.9467 31.4294 12.1863C31.3916 12.4618 31.0807 12.753 30.4589 13.3353L24.5589 18.8606C24.375 19.0328 24.283 19.1189 24.2237 19.2214C24.1711 19.3121 24.1374 19.4118 24.1244 19.5149C24.1097 19.6313 24.1314 19.753 24.1749 19.9963L25.567 27.8004C25.7138 28.6236 25.7872 29.0351 25.6492 29.2794C25.5292 29.4918 25.3158 29.6409 25.0685 29.685C24.7843 29.7356 24.3999 29.5413 23.6312 29.1525L16.3393 25.4655C16.1121 25.3506 15.9985 25.2932 15.8788 25.2706C15.7728 25.2506 15.6638 25.2506 15.5579 25.2706C15.4382 25.2932 15.3246 25.3506 15.0974 25.4655L7.80547 29.1525C7.0367 29.5413 6.65231 29.7356 6.36809 29.685C6.12081 29.6409 5.90742 29.4918 5.78738 29.2794C5.64941 29.0351 5.72283 28.6236 5.86966 27.8004L7.26177 19.9963C7.30518 19.753 7.32688 19.6313 7.31219 19.5149C7.29919 19.4118 7.26549 19.3121 7.21295 19.2214C7.15361 19.1189 7.06165 19.0328 6.87773 18.8606L0.977772 13.3353C0.355936 12.753 0.045018 12.4618 0.00718317 12.1863C-0.0257352 11.9467 0.0555886 11.7055 0.228512 11.53C0.427262 11.3283 0.856726 11.2679 1.71565 11.1472L9.87225 10.0009C10.1259 9.96529 10.2527 9.94747 10.3632 9.89808C10.461 9.85435 10.549 9.7928 10.6225 9.71683C10.7054 9.63102 10.7621 9.52051 10.8756 9.29949L14.522 2.19663Z" fill="#ECF100"/>
</svg>
