<svg width="20" height="20" viewBox="0 0 20 20" fill="none" xmlns="http://www.w3.org/2000/svg">
<path d="M17.071 4.08999L4.10737 17.0536C3.7821 17.3789 3.25413 17.3789 2.92886 17.0536C2.60359 16.7283 2.60358 16.2004 2.92886 15.8751L15.8925 2.91148C16.2177 2.58621 16.7457 2.58621 17.071 2.91148C17.3963 3.23675 17.3963 3.76472 17.071 4.08999Z" fill="#23273A"/>
<path d="M15.8924 17.0537L2.92881 4.09003C2.60354 3.76476 2.60354 3.23679 2.92881 2.91152C3.25408 2.58625 3.78205 2.58625 4.10732 2.91152L17.0709 15.8751C17.3962 16.2004 17.3962 16.7284 17.0709 17.0537C16.7457 17.3789 16.2177 17.3789 15.8924 17.0537Z" fill="black"/>
</svg>
