<svg width="20" height="21" viewBox="0 0 20 21" fill="none" xmlns="http://www.w3.org/2000/svg">
<path d="M10.0019 2.10449H9.99776C5.40296 2.10449 1.6665 5.84199 1.6665 10.4378C1.6665 12.2607 2.254 13.9503 3.25296 15.3222L2.21442 18.418L5.41755 17.3941C6.73525 18.267 8.30713 18.7712 10.0019 18.7712C14.5967 18.7712 18.3332 15.0326 18.3332 10.4378C18.3332 5.84303 14.5967 2.10449 10.0019 2.10449ZM14.8509 13.8722C14.6498 14.4399 13.8519 14.9107 13.2155 15.0482C12.78 15.141 12.2113 15.2149 10.2967 14.4212C7.84775 13.4066 6.27067 10.918 6.14775 10.7566C6.03005 10.5951 5.15817 9.43887 5.15817 8.24303C5.15817 7.0472 5.76546 6.46491 6.01025 6.21491C6.2113 6.0097 6.54359 5.91595 6.86234 5.91595C6.96546 5.91595 7.05817 5.92116 7.1415 5.92533C7.3863 5.93574 7.50921 5.95033 7.67067 6.33678C7.87171 6.82116 8.3613 8.01699 8.41963 8.13991C8.479 8.26283 8.53838 8.42949 8.45505 8.59095C8.37692 8.75762 8.30817 8.83158 8.18525 8.97324C8.06234 9.11491 7.94567 9.22324 7.82275 9.37533C7.71025 9.50762 7.58317 9.64928 7.72484 9.89408C7.8665 10.1337 8.35609 10.9326 9.07692 11.5743C10.0071 12.4024 10.7613 12.667 11.0311 12.7795C11.2321 12.8628 11.4717 12.843 11.6186 12.6868C11.805 12.4857 12.0353 12.1524 12.2696 11.8243C12.4363 11.5889 12.6467 11.5597 12.8675 11.643C13.0925 11.7212 14.2832 12.3097 14.528 12.4316C14.7728 12.5545 14.9342 12.6128 14.9936 12.716C15.0519 12.8191 15.0519 13.3035 14.8509 13.8722Z" fill="#23273A"/>
</svg>
